# xmcd
#
# Track frame offsets:
#	150
#	19690
#	36657
#	51912
#	66066
#	86946
#	111499
#	124381
#	144608
#	168930
#
# Disc length: 2418 seconds
#
# Revision: 1
# Processed by: cddbd v1.5.2PL0 Copyright (c) Steve Scherf et al.
# Submitted via: audiograbber 1.83.01
#
DISCID=9709700a
DTITLE=Plainfield Slim and The Groundhawgsjkm - When The Devil Hits Home
DYEAR=2009
DGENRE=
TTITLE0=When The Devil Hits Home - 01 - Dirty Girl
TTITLE1=When The Devil Hits Home - 02 - Rattle That Box
TTITLE2=When The Devil Hits Home - 03 - Lovesick Train
TTITLE3=When The Devil Hits Home - 04 - Miss Stacey
TTITLE4=When The Devil Hits Home - 05 - Sweet Jesus
TTITLE5=When The Devil Hits Home - 06 - When The Devil Hits Home
TTITLE6=When The Devil Hits Home - 07 - Hideout
TTITLE7=When The Devil Hits Home - 08 - Moan
TTITLE8=When The Devil Hits Home - 09 - Head Back
TTITLE9=When The Devil Hits Home - 10 - Far As You Can Go
EXTD=
EXTT0=
EXTT1=
EXTT2=
EXTT3=
EXTT4=
EXTT5=
EXTT6=
EXTT7=
EXTT8=
EXTT9=
PLAYORDER=
